<mxfile host="app.diagrams.net" agent="Mozilla/5.0 (X11; Linux x86_64) AppleWebKit/537.36 (KHTML, like Gecko) Chrome/139.0.0.0 Safari/537.36" version="28.2.5">
  <diagram name="Page-1" id="BxpkQqTOfasFmNi2QtrI">
    <mxGraphModel dx="1360" dy="788" grid="1" gridSize="10" guides="1" tooltips="1" connect="1" arrows="1" fold="1" page="1" pageScale="1" pageWidth="850" pageHeight="1100" math="0" shadow="0">
      <root>
        <mxCell id="0" />
        <mxCell id="1" parent="0" />
        <mxCell id="jpcIJmxW5JENwwu3IT-c-1" style="edgeStyle=orthogonalEdgeStyle;rounded=0;orthogonalLoop=1;jettySize=auto;html=1;" parent="1" source="jpcIJmxW5JENwwu3IT-c-2" target="jpcIJmxW5JENwwu3IT-c-4" edge="1">
          <mxGeometry relative="1" as="geometry" />
        </mxCell>
        <mxCell id="jpcIJmxW5JENwwu3IT-c-2" value="&lt;div&gt;Aruco&lt;/div&gt;&lt;div&gt;localization&lt;/div&gt;" style="shape=ellipse;html=1;dashed=0;whiteSpace=wrap;perimeter=ellipsePerimeter;" parent="1" vertex="1">
          <mxGeometry x="653.76" y="489" width="95" height="40" as="geometry" />
        </mxCell>
        <mxCell id="jpcIJmxW5JENwwu3IT-c-3" style="edgeStyle=orthogonalEdgeStyle;rounded=0;orthogonalLoop=1;jettySize=auto;html=1;entryX=1;entryY=0.5;entryDx=0;entryDy=0;exitX=0;exitY=0.5;exitDx=0;exitDy=0;" parent="1" source="jpcIJmxW5JENwwu3IT-c-19" target="jpcIJmxW5JENwwu3IT-c-10" edge="1">
          <mxGeometry relative="1" as="geometry" />
        </mxCell>
        <mxCell id="jpcIJmxW5JENwwu3IT-c-4" value="Transform tf2" style="rounded=0;whiteSpace=wrap;html=1;" parent="1" vertex="1">
          <mxGeometry x="656.51" y="553" width="89.5" height="30" as="geometry" />
        </mxCell>
        <mxCell id="jpcIJmxW5JENwwu3IT-c-5" style="edgeStyle=orthogonalEdgeStyle;rounded=0;orthogonalLoop=1;jettySize=auto;html=1;fontStyle=0;strokeColor=default;" parent="1" source="jpcIJmxW5JENwwu3IT-c-6" target="jpcIJmxW5JENwwu3IT-c-17" edge="1">
          <mxGeometry relative="1" as="geometry" />
        </mxCell>
        <mxCell id="jpcIJmxW5JENwwu3IT-c-6" value="&lt;div&gt;Stitching&lt;/div&gt;" style="shape=ellipse;html=1;dashed=0;whiteSpace=wrap;perimeter=ellipsePerimeter;" parent="1" vertex="1">
          <mxGeometry x="564.25" y="489" width="80" height="40" as="geometry" />
        </mxCell>
        <mxCell id="jpcIJmxW5JENwwu3IT-c-7" value="" style="verticalLabelPosition=bottom;outlineConnect=0;align=center;dashed=0;html=1;verticalAlign=top;shape=mxgraph.pid.misc.industrial_truck;pointerEvents=1;fillColor=#000000;gradientColor=none;gradientDirection=south;" parent="1" vertex="1">
          <mxGeometry x="405" y="736" width="105" height="20" as="geometry" />
        </mxCell>
        <mxCell id="jpcIJmxW5JENwwu3IT-c-8" value="" style="sketch=0;outlineConnect=0;fontColor=#232F3E;gradientColor=none;fillColor=#000000;strokeColor=none;dashed=0;verticalLabelPosition=bottom;verticalAlign=top;align=center;html=1;fontSize=12;fontStyle=0;aspect=fixed;pointerEvents=1;shape=mxgraph.aws4.container_registry_image;" parent="1" vertex="1">
          <mxGeometry x="437" y="538" width="30" height="30" as="geometry" />
        </mxCell>
        <mxCell id="jpcIJmxW5JENwwu3IT-c-9" value="" style="sketch=0;outlineConnect=0;fontColor=#232F3E;gradientColor=none;fillColor=#000000;strokeColor=none;dashed=0;verticalLabelPosition=bottom;verticalAlign=top;align=center;html=1;fontSize=12;fontStyle=0;aspect=fixed;pointerEvents=1;shape=mxgraph.aws4.container_registry_image;" parent="1" vertex="1">
          <mxGeometry x="305" y="540" width="30" height="30" as="geometry" />
        </mxCell>
        <mxCell id="jpcIJmxW5JENwwu3IT-c-10" value="" style="shape=image;html=1;verticalAlign=top;verticalLabelPosition=bottom;labelBackgroundColor=#ffffff;imageAspect=0;aspect=fixed;image=https://icons.diagrams.net/icon-cache1/Bootstrap_Vol_3-2297/joystick-989.svg" parent="1" vertex="1">
          <mxGeometry x="545" y="701" width="25" height="25" as="geometry" />
        </mxCell>
        <mxCell id="jpcIJmxW5JENwwu3IT-c-11" value="" style="points=[[0,0.5,0],[0.19,0.02,0],[0.59,0,0],[0.985,0.02,0],[1,0.5,0],[0.985,0.98,0],[0.59,1,0],[0.19,0.98,0]];verticalLabelPosition=bottom;sketch=0;html=1;verticalAlign=top;aspect=fixed;align=center;pointerEvents=1;shape=mxgraph.cisco19.camera;fillColor=#000000;strokeColor=none;rotation=-45;gradientColor=none;" parent="1" vertex="1">
          <mxGeometry x="436.51" y="577" width="36" height="20" as="geometry" />
        </mxCell>
        <mxCell id="jpcIJmxW5JENwwu3IT-c-12" value="" style="points=[[0,0.5,0],[0.19,0.02,0],[0.59,0,0],[0.985,0.02,0],[1,0.5,0],[0.985,0.98,0],[0.59,1,0],[0.19,0.98,0]];verticalLabelPosition=bottom;sketch=0;html=1;verticalAlign=top;aspect=fixed;align=center;pointerEvents=1;shape=mxgraph.cisco19.camera;fillColor=#330000;strokeColor=light-dark(#000000,#330000);rotation=-135;fillStyle=solid;fontColor=#ffffff;gradientColor=none;" parent="1" vertex="1">
          <mxGeometry x="308.49" y="578" width="36" height="20" as="geometry" />
        </mxCell>
        <mxCell id="jpcIJmxW5JENwwu3IT-c-14" value="" style="rounded=0;whiteSpace=wrap;html=1;fillColor=#D1D1D1;" parent="1" vertex="1">
          <mxGeometry x="370" y="680" width="46" height="10" as="geometry" />
        </mxCell>
        <mxCell id="jpcIJmxW5JENwwu3IT-c-15" value="" style="endArrow=none;html=1;rounded=0;fontSize=20;entryX=0.75;entryY=1;entryDx=0;entryDy=0;" parent="1" target="jpcIJmxW5JENwwu3IT-c-14" edge="1">
          <mxGeometry width="50" height="50" relative="1" as="geometry">
            <mxPoint x="406" y="740" as="sourcePoint" />
            <mxPoint x="400" y="700" as="targetPoint" />
          </mxGeometry>
        </mxCell>
        <mxCell id="jpcIJmxW5JENwwu3IT-c-16" style="edgeStyle=orthogonalEdgeStyle;rounded=0;orthogonalLoop=1;jettySize=auto;html=1;entryX=0.5;entryY=0;entryDx=0;entryDy=0;fontStyle=0;strokeColor=default;" parent="1" source="jpcIJmxW5JENwwu3IT-c-17" target="jpcIJmxW5JENwwu3IT-c-20" edge="1">
          <mxGeometry relative="1" as="geometry" />
        </mxCell>
        <mxCell id="jpcIJmxW5JENwwu3IT-c-17" value="" style="sketch=0;outlineConnect=0;fontColor=#232F3E;gradientColor=none;fillColor=#000000;strokeColor=default;dashed=0;verticalLabelPosition=bottom;verticalAlign=top;align=center;html=1;fontSize=12;fontStyle=0;pointerEvents=1;shape=mxgraph.aws4.container_registry_image;resizeWidth=0;resizable=1;" parent="1" vertex="1">
          <mxGeometry x="515" y="548" width="178.5" height="40" as="geometry" />
        </mxCell>
        <mxCell id="jpcIJmxW5JENwwu3IT-c-18" value="" style="edgeStyle=orthogonalEdgeStyle;rounded=0;orthogonalLoop=1;jettySize=auto;html=1;exitX=0.5;exitY=1;exitDx=0;exitDy=0;" parent="1" source="jpcIJmxW5JENwwu3IT-c-4" target="jpcIJmxW5JENwwu3IT-c-19" edge="1">
          <mxGeometry relative="1" as="geometry">
            <mxPoint x="701" y="590" as="sourcePoint" />
            <mxPoint x="564" y="480" as="targetPoint" />
          </mxGeometry>
        </mxCell>
        <mxCell id="jpcIJmxW5JENwwu3IT-c-19" value="&lt;b&gt;Navigation&lt;/b&gt;" style="ellipse;whiteSpace=wrap;html=1;" parent="1" vertex="1">
          <mxGeometry x="663.76" y="673.5" width="75" height="80" as="geometry" />
        </mxCell>
        <mxCell id="jpcIJmxW5JENwwu3IT-c-20" value="&lt;div&gt;&lt;b&gt;Monitoring&lt;/b&gt;&lt;/div&gt;" style="ellipse;whiteSpace=wrap;html=1;" parent="1" vertex="1">
          <mxGeometry x="567.13" y="610" width="74.25" height="70" as="geometry" />
        </mxCell>
        <mxCell id="jpcIJmxW5JENwwu3IT-c-21" value="Stitched image" style="text;html=1;align=center;verticalAlign=middle;whiteSpace=wrap;rounded=0;" parent="1" vertex="1">
          <mxGeometry x="529" y="588" width="60" height="30" as="geometry" />
        </mxCell>
        <mxCell id="jpcIJmxW5JENwwu3IT-c-22" value="Pose" style="text;html=1;align=center;verticalAlign=middle;whiteSpace=wrap;rounded=0;" parent="1" vertex="1">
          <mxGeometry x="693.5" y="587" width="60" height="30" as="geometry" />
        </mxCell>
        <mxCell id="jpcIJmxW5JENwwu3IT-c-23" value="Control" style="text;html=1;align=center;verticalAlign=middle;whiteSpace=wrap;rounded=0;" parent="1" vertex="1">
          <mxGeometry x="500" y="675" width="60" height="30" as="geometry" />
        </mxCell>
        <mxCell id="jpcIJmxW5JENwwu3IT-c-24" value="ArUco&lt;br&gt;marker" style="text;html=1;align=center;verticalAlign=middle;whiteSpace=wrap;rounded=0;" parent="1" vertex="1">
          <mxGeometry x="305" y="645" width="60" height="30" as="geometry" />
        </mxCell>
        <mxCell id="jpcIJmxW5JENwwu3IT-c-25" value="" style="rounded=1;whiteSpace=wrap;html=1;fillColor=none;" parent="1" vertex="1">
          <mxGeometry x="538.25" y="485" width="228" height="50" as="geometry" />
        </mxCell>
        <mxCell id="jpcIJmxW5JENwwu3IT-c-26" style="edgeStyle=orthogonalEdgeStyle;rounded=0;orthogonalLoop=1;jettySize=auto;html=1;entryX=0;entryY=0.25;entryDx=0;entryDy=0;" parent="1" source="jpcIJmxW5JENwwu3IT-c-9" target="jpcIJmxW5JENwwu3IT-c-25" edge="1">
          <mxGeometry relative="1" as="geometry">
            <Array as="points">
              <mxPoint x="320" y="498" />
            </Array>
          </mxGeometry>
        </mxCell>
        <mxCell id="jpcIJmxW5JENwwu3IT-c-27" style="edgeStyle=orthogonalEdgeStyle;rounded=0;orthogonalLoop=1;jettySize=auto;html=1;entryX=0;entryY=0.75;entryDx=0;entryDy=0;" parent="1" source="jpcIJmxW5JENwwu3IT-c-8" target="jpcIJmxW5JENwwu3IT-c-25" edge="1">
          <mxGeometry relative="1" as="geometry">
            <mxPoint x="530" y="523" as="targetPoint" />
            <Array as="points">
              <mxPoint x="452" y="523" />
              <mxPoint x="465" y="523" />
            </Array>
          </mxGeometry>
        </mxCell>
        <mxCell id="jpcIJmxW5JENwwu3IT-c-28" value="Pallet truck" style="text;html=1;align=center;verticalAlign=middle;whiteSpace=wrap;rounded=0;" parent="1" vertex="1">
          <mxGeometry x="315.49" y="710" width="65" height="30" as="geometry" />
        </mxCell>
        <mxCell id="jpcIJmxW5JENwwu3IT-c-29" value="" style="shape=image;verticalLabelPosition=bottom;labelBackgroundColor=default;verticalAlign=top;aspect=fixed;imageAspect=0;editableCssRules=.*;image=data:image/svg+xml,PHN2ZyB4bWxucz0iaHR0cDovL3d3dy53My5vcmcvMjAwMC9zdmciIGhlaWdodD0iMTAwIiB3aWR0aD0iMTAwIiBzaGFwZS1yZW5kZXJpbmc9ImNyaXNwRWRnZXMiIHZpZXdCb3g9IjAgMCA2IDYiPjxyZWN0IGZpbGw9ImJsYWNrIiBoZWlnaHQ9IjYiIHdpZHRoPSI2IiB5PSIwIiB4PSIwIi8+PHJlY3QgZmlsbD0id2hpdGUiIHk9IjEiIHg9IjEiIGhlaWdodD0iMSIgd2lkdGg9IjEiLz48cmVjdCBmaWxsPSJ3aGl0ZSIgeT0iMSIgeD0iMyIgaGVpZ2h0PSIxIiB3aWR0aD0iMS41Ii8+PHJlY3QgZmlsbD0id2hpdGUiIHk9IjEiIHg9IjQiIGhlaWdodD0iMSIgd2lkdGg9IjEiLz48cmVjdCBmaWxsPSJ3aGl0ZSIgeT0iMSIgeD0iNCIgaGVpZ2h0PSIxLjUiIHdpZHRoPSIxIi8+PHJlY3QgZmlsbD0id2hpdGUiIHk9IjIiIHg9IjIiIGhlaWdodD0iMSIgd2lkdGg9IjEiLz48cmVjdCBmaWxsPSJ3aGl0ZSIgeT0iMiIgeD0iNCIgaGVpZ2h0PSIxIiB3aWR0aD0iMSIvPjxyZWN0IGZpbGw9IndoaXRlIiB5PSIyIiB4PSI0IiBoZWlnaHQ9IjEuNSIgd2lkdGg9IjEiLz48cmVjdCBmaWxsPSJ3aGl0ZSIgeT0iMyIgeD0iMyIgaGVpZ2h0PSIxIiB3aWR0aD0iMS41Ii8+PHJlY3QgZmlsbD0id2hpdGUiIHk9IjMiIHg9IjMiIGhlaWdodD0iMS41IiB3aWR0aD0iMSIvPjxyZWN0IGZpbGw9IndoaXRlIiB5PSIzIiB4PSI0IiBoZWlnaHQ9IjEiIHdpZHRoPSIxIi8+PHJlY3QgZmlsbD0id2hpdGUiIHk9IjQiIHg9IjMiIGhlaWdodD0iMSIgd2lkdGg9IjEiLz48L3N2Zz4=;shadow=1;" parent="1" vertex="1">
          <mxGeometry x="375.5" y="640" width="35" height="35" as="geometry" />
        </mxCell>
        <mxCell id="jpcIJmxW5JENwwu3IT-c-31" value="" style="rounded=0;whiteSpace=wrap;html=1;fillColor=#C4C4C4;" parent="1" vertex="1">
          <mxGeometry x="405" y="720" width="108" height="20" as="geometry" />
        </mxCell>
        <mxCell id="jpcIJmxW5JENwwu3IT-c-33" value="" style="endArrow=none;dashed=1;html=1;dashPattern=1 3;strokeWidth=2;rounded=0;exitX=0.75;exitY=0;exitDx=0;exitDy=0;" parent="1" source="jpcIJmxW5JENwwu3IT-c-29" edge="1">
          <mxGeometry width="50" height="50" relative="1" as="geometry">
            <mxPoint x="394.74" y="648" as="sourcePoint" />
            <mxPoint x="444.74" y="598" as="targetPoint" />
          </mxGeometry>
        </mxCell>
        <mxCell id="jpcIJmxW5JENwwu3IT-c-34" value="" style="endArrow=none;dashed=1;html=1;dashPattern=1 3;strokeWidth=2;rounded=0;" parent="1" edge="1">
          <mxGeometry width="50" height="50" relative="1" as="geometry">
            <mxPoint x="340" y="600" as="sourcePoint" />
            <mxPoint x="370" y="640" as="targetPoint" />
          </mxGeometry>
        </mxCell>
      </root>
    </mxGraphModel>
  </diagram>
</mxfile>
